# 3ds Max Wavefront OBJ Exporter v0.97b - (c)2007 guruware
# File Created: 15.10.2018 15:13:22

mtllib thanos 2.mtl

#
# object Cone001
#

v  -0.1684 0.0000 0.0194
v  7.7736 0.0000 -4.5659
v  8.6897 0.0000 -2.3541
v  9.0022 0.0000 0.0194
v  4.4169 0.0000 -7.9225
v  6.3162 0.0000 -6.4651
v  -0.1684 0.0000 -9.1512
v  2.2051 0.0000 -8.8387
v  -4.7537 0.0000 -7.9225
v  -2.5419 0.0000 -8.8387
v  -8.1104 0.0000 -4.5659
v  -6.6530 0.0000 -6.4652
v  -9.3390 0.0000 0.0194
v  -9.0265 0.0000 -2.3541
v  -8.1104 0.0000 4.6047
v  -9.0265 0.0000 2.3930
v  -4.7537 0.0000 7.9614
v  -6.6530 0.0000 6.5040
v  -0.1684 0.0000 9.1901
v  -2.5419 0.0000 8.8776
v  4.4169 0.0000 7.9614
v  2.2051 0.0000 8.8776
v  7.7736 0.0000 4.6048
v  6.3162 0.0000 6.5040
v  8.6897 0.0000 2.3930
v  9.7641 3.9029 -2.6419
v  10.1144 3.9029 0.0194
v  8.7368 3.9029 -5.1220
v  7.1027 3.9029 -7.2516
v  4.9730 3.9029 -8.8858
v  2.4930 3.9029 -9.9130
v  -0.1684 3.9029 -10.2634
v  -2.8298 3.9029 -9.9130
v  -5.3098 3.9029 -8.8858
v  -7.4395 3.9029 -7.2516
v  -9.0736 3.9029 -5.1220
v  -10.1009 3.9029 -2.6420
v  -10.4512 3.9029 0.0194
v  -10.1009 3.9029 2.6808
v  -9.0736 3.9029 5.1609
v  -7.4395 3.9029 7.2905
v  -5.3098 3.9029 8.9246
v  -2.8298 3.9029 9.9519
v  -0.1684 3.9029 10.3023
v  2.4930 3.9029 9.9519
v  4.9730 3.9029 8.9247
v  7.1027 3.9029 7.2905
v  8.7368 3.9029 5.1609
v  9.7641 3.9029 2.6808
v  10.8384 7.8059 -2.9298
v  11.2267 7.8059 0.0194
v  9.7000 7.8059 -5.6781
v  7.8891 7.8059 -8.0381
v  5.5291 7.8059 -9.8490
v  2.7809 7.8059 -10.9873
v  -0.1684 7.8059 -11.3756
v  -3.1177 7.8059 -10.9873
v  -5.8659 7.8059 -9.8490
v  -8.2259 7.8059 -8.0381
v  -10.0368 7.8059 -5.6781
v  -11.1752 7.8059 -2.9298
v  -11.5635 7.8059 0.0194
v  -11.1752 7.8059 2.9687
v  -10.0368 7.8059 5.7170
v  -8.2259 7.8059 8.0770
v  -5.8659 7.8059 9.8879
v  -3.1177 7.8059 11.0262
v  -0.1684 7.8059 11.4145
v  2.7809 7.8059 11.0262
v  5.5291 7.8059 9.8879
v  7.8891 7.8059 8.0770
v  9.7000 7.8059 5.7170
v  10.8384 7.8059 2.9687
v  11.9127 11.7088 -3.2177
v  12.3389 11.7088 0.0194
v  10.6632 11.7088 -6.2342
v  8.6756 11.7088 -8.8246
v  6.0853 11.7088 -10.8122
v  3.0687 11.7088 -12.0617
v  -0.1684 11.7088 -12.4879
v  -3.4055 11.7088 -12.0617
v  -6.4220 11.7088 -10.8122
v  -9.0124 11.7088 -8.8246
v  -11.0000 11.7088 -6.2342
v  -12.2495 11.7088 -3.2177
v  -12.6757 11.7088 0.0194
v  -12.2495 11.7088 3.2566
v  -11.0000 11.7088 6.2731
v  -9.0124 11.7088 8.8634
v  -6.4221 11.7088 10.8511
v  -3.4055 11.7088 12.1006
v  -0.1684 11.7088 12.5268
v  3.0687 11.7088 12.1006
v  6.0853 11.7088 10.8511
v  8.6756 11.7088 8.8635
v  10.6632 11.7088 6.2731
v  11.9127 11.7088 3.2566
v  12.9871 15.6117 -3.5055
v  13.4511 15.6117 0.0194
v  11.6265 15.6117 -6.7903
v  9.4621 15.6117 -9.6110
v  6.6414 15.6117 -11.7754
v  3.3566 15.6117 -13.1360
v  -0.1684 15.6117 -13.6001
v  -3.6934 15.6117 -13.1360
v  -6.9782 15.6117 -11.7754
v  -9.7989 15.6117 -9.6110
v  -11.9633 15.6117 -6.7903
v  -13.3239 15.6117 -3.5056
v  -13.7879 15.6117 0.0194
v  -13.3239 15.6117 3.5444
v  -11.9633 15.6117 6.8292
v  -9.7989 15.6117 9.6499
v  -6.9782 15.6117 11.8143
v  -3.6934 15.6117 13.1749
v  -0.1684 15.6117 13.6390
v  3.3566 15.6117 13.1749
v  6.6414 15.6117 11.8143
v  9.4621 15.6117 9.6499
v  11.6265 15.6117 6.8292
v  12.9871 15.6117 3.5445
v  14.0614 19.5147 -3.7934
v  14.5634 19.5147 0.0194
v  12.5897 19.5147 -7.3464
v  10.2485 19.5147 -10.3975
v  7.1975 19.5147 -12.7386
v  3.6445 19.5147 -14.2104
v  -0.1684 19.5147 -14.7123
v  -3.9813 19.5147 -14.2104
v  -7.5343 19.5147 -12.7386
v  -10.5853 19.5147 -10.3975
v  -12.9265 19.5147 -7.3464
v  -14.3982 19.5147 -3.7934
v  -14.9002 19.5147 0.0194
v  -14.3982 19.5147 3.8323
v  -12.9265 19.5147 7.3853
v  -10.5853 19.5147 10.4364
v  -7.5343 19.5147 12.7775
v  -3.9813 19.5147 14.2492
v  -0.1684 19.5147 14.7512
v  3.6445 19.5147 14.2493
v  7.1975 19.5147 12.7775
v  10.2485 19.5147 10.4364
v  12.5897 19.5147 7.3853
v  14.0614 19.5147 3.8323
v  -0.1684 19.5147 0.0194
# 146 vertices

vn 0.0000 -1.0000 -0.0000
vn 0.5478 -0.7745 -0.3163
vn 0.6110 -0.7745 -0.1637
vn 0.6326 -0.7745 0.0000
vn 0.3163 -0.7745 -0.5478
vn 0.4473 -0.7745 -0.4473
vn 0.0000 -0.7745 -0.6326
vn 0.1637 -0.7745 -0.6110
vn -0.3163 -0.7745 -0.5478
vn -0.1637 -0.7745 -0.6110
vn -0.5478 -0.7745 -0.3163
vn -0.4473 -0.7745 -0.4473
vn -0.6326 -0.7745 -0.0000
vn -0.6110 -0.7745 -0.1637
vn -0.5478 -0.7745 0.3163
vn -0.6110 -0.7745 0.1637
vn -0.3163 -0.7745 0.5478
vn -0.4473 -0.7745 0.4473
vn -0.0000 -0.7745 0.6326
vn -0.1637 -0.7745 0.6110
vn 0.3163 -0.7745 0.5478
vn 0.1637 -0.7745 0.6110
vn 0.5478 -0.7745 0.3163
vn 0.4473 -0.7745 0.4473
vn 0.6110 -0.7745 0.1637
vn 0.9289 -0.2741 -0.2489
vn 0.9617 -0.2741 0.0000
vn 0.8329 -0.2741 -0.4809
vn 0.6800 -0.2741 -0.6800
vn 0.4809 -0.2741 -0.8329
vn 0.2489 -0.2741 -0.9289
vn -0.0000 -0.2741 -0.9617
vn -0.2489 -0.2741 -0.9289
vn -0.4809 -0.2741 -0.8329
vn -0.6800 -0.2741 -0.6800
vn -0.8329 -0.2741 -0.4809
vn -0.9289 -0.2741 -0.2489
vn -0.9617 -0.2741 -0.0000
vn -0.9289 -0.2741 0.2489
vn -0.8329 -0.2741 0.4809
vn -0.6800 -0.2741 0.6800
vn -0.4809 -0.2741 0.8329
vn -0.2489 -0.2741 0.9289
vn -0.0000 -0.2741 0.9617
vn 0.2489 -0.2741 0.9289
vn 0.4809 -0.2741 0.8329
vn 0.6800 -0.2741 0.6800
vn 0.8329 -0.2741 0.4809
vn 0.9289 -0.2741 0.2489
vn 0.0000 -0.2741 -0.9617
vn 0.7920 0.5725 -0.2122
vn 0.8199 0.5725 0.0000
vn 0.7101 0.5725 -0.4100
vn 0.5798 0.5725 -0.5798
vn 0.4100 0.5725 -0.7101
vn 0.2122 0.5725 -0.7920
vn 0.0000 0.5725 -0.8199
vn -0.2122 0.5725 -0.7920
vn -0.4100 0.5725 -0.7101
vn -0.5798 0.5725 -0.5798
vn -0.7101 0.5725 -0.4100
vn -0.7920 0.5725 -0.2122
vn -0.8199 0.5725 -0.0000
vn -0.7920 0.5725 0.2122
vn -0.7101 0.5725 0.4100
vn -0.5798 0.5725 0.5798
vn -0.4100 0.5725 0.7101
vn -0.2122 0.5725 0.7920
vn -0.0000 0.5725 0.8199
vn 0.2122 0.5725 0.7920
vn 0.4100 0.5725 0.7101
vn 0.5798 0.5725 0.5798
vn 0.7101 0.5725 0.4100
vn 0.7920 0.5725 0.2122
vn 0.0000 1.0000 -0.0000
# 75 vertex normals

vt 0.5000 0.5000 0.0000
vt 0.7696 0.6556 0.0000
vt 0.8006 0.5806 0.0000
vt 0.8113 0.5000 0.0000
vt 0.6556 0.7696 0.0000
vt 0.7201 0.7201 0.0000
vt 0.5000 0.8113 0.0000
vt 0.5806 0.8006 0.0000
vt 0.3444 0.7696 0.0000
vt 0.4194 0.8006 0.0000
vt 0.2304 0.6556 0.0000
vt 0.2799 0.7201 0.0000
vt 0.1887 0.5000 0.0000
vt 0.1994 0.5806 0.0000
vt 0.2304 0.3444 0.0000
vt 0.1994 0.4194 0.0000
vt 0.3444 0.2304 0.0000
vt 0.2799 0.2799 0.0000
vt 0.5000 0.1887 0.0000
vt 0.4194 0.1994 0.0000
vt 0.6556 0.2304 0.0000
vt 0.5806 0.1994 0.0000
vt 0.7696 0.3444 0.0000
vt 0.7201 0.2799 0.0000
vt 0.8006 0.4194 0.0000
vt 0.7500 0.0000 0.6225
vt 0.7917 0.0000 0.6225
vt 0.7917 0.2000 0.6980
vt 0.7500 0.2000 0.6980
vt 0.8333 0.0000 0.6225
vt 0.8333 0.2000 0.6980
vt 0.8750 0.0000 0.6225
vt 0.8750 0.2000 0.6980
vt 0.9167 0.0000 0.6225
vt 0.9167 0.2000 0.6980
vt 0.9583 0.0000 0.6225
vt 0.9583 0.2000 0.6980
vt 1.0000 0.0000 0.6225
vt 1.0000 0.2000 0.6980
vt 0.0000 0.0000 0.6225
vt 0.0417 0.0000 0.6225
vt 0.0417 0.2000 0.6980
vt 0.0000 0.2000 0.6980
vt 0.0833 0.0000 0.6225
vt 0.0833 0.2000 0.6980
vt 0.1250 0.0000 0.6225
vt 0.1250 0.2000 0.6980
vt 0.1667 0.0000 0.6225
vt 0.1667 0.2000 0.6980
vt 0.2083 0.0000 0.6225
vt 0.2083 0.2000 0.6980
vt 0.2500 0.0000 0.6225
vt 0.2500 0.2000 0.6980
vt 0.2917 0.0000 0.6225
vt 0.2917 0.2000 0.6980
vt 0.3333 0.0000 0.6225
vt 0.3333 0.2000 0.6980
vt 0.3750 0.0000 0.6225
vt 0.3750 0.2000 0.6980
vt 0.4167 0.0000 0.6225
vt 0.4167 0.2000 0.6980
vt 0.4583 0.0000 0.6225
vt 0.4583 0.2000 0.6980
vt 0.5000 0.0000 0.6225
vt 0.5000 0.2000 0.6980
vt 0.5417 0.0000 0.6225
vt 0.5417 0.2000 0.6980
vt 0.5833 0.0000 0.6225
vt 0.5833 0.2000 0.6980
vt 0.6250 0.0000 0.6225
vt 0.6250 0.2000 0.6980
vt 0.6667 0.0000 0.6225
vt 0.6667 0.2000 0.6980
vt 0.7083 0.0000 0.6225
vt 0.7083 0.2000 0.6980
vt 0.7917 0.4000 0.7735
vt 0.7500 0.4000 0.7735
vt 0.8333 0.4000 0.7735
vt 0.8750 0.4000 0.7735
vt 0.9167 0.4000 0.7735
vt 0.9583 0.4000 0.7735
vt 1.0000 0.4000 0.7735
vt 0.0417 0.4000 0.7735
vt 0.0000 0.4000 0.7735
vt 0.0833 0.4000 0.7735
vt 0.1250 0.4000 0.7735
vt 0.1667 0.4000 0.7735
vt 0.2083 0.4000 0.7735
vt 0.2500 0.4000 0.7735
vt 0.2917 0.4000 0.7735
vt 0.3333 0.4000 0.7735
vt 0.3750 0.4000 0.7735
vt 0.4167 0.4000 0.7735
vt 0.4583 0.4000 0.7735
vt 0.5000 0.4000 0.7735
vt 0.5417 0.4000 0.7735
vt 0.5833 0.4000 0.7735
vt 0.6250 0.4000 0.7735
vt 0.6667 0.4000 0.7735
vt 0.7083 0.4000 0.7735
vt 0.7917 0.6000 0.8490
vt 0.7500 0.6000 0.8490
vt 0.8333 0.6000 0.8490
vt 0.8750 0.6000 0.8490
vt 0.9167 0.6000 0.8490
vt 0.9583 0.6000 0.8490
vt 1.0000 0.6000 0.8490
vt 0.0417 0.6000 0.8490
vt 0.0000 0.6000 0.8490
vt 0.0833 0.6000 0.8490
vt 0.1250 0.6000 0.8490
vt 0.1667 0.6000 0.8490
vt 0.2083 0.6000 0.8490
vt 0.2500 0.6000 0.8490
vt 0.2917 0.6000 0.8490
vt 0.3333 0.6000 0.8490
vt 0.3750 0.6000 0.8490
vt 0.4167 0.6000 0.8490
vt 0.4583 0.6000 0.8490
vt 0.5000 0.6000 0.8490
vt 0.5417 0.6000 0.8490
vt 0.5833 0.6000 0.8490
vt 0.6250 0.6000 0.8490
vt 0.6667 0.6000 0.8490
vt 0.7083 0.6000 0.8490
vt 0.7917 0.8000 0.9245
vt 0.7500 0.8000 0.9245
vt 0.8333 0.8000 0.9245
vt 0.8750 0.8000 0.9245
vt 0.9167 0.8000 0.9245
vt 0.9583 0.8000 0.9245
vt 1.0000 0.8000 0.9245
vt 0.0417 0.8000 0.9245
vt 0.0000 0.8000 0.9245
vt 0.0833 0.8000 0.9245
vt 0.1250 0.8000 0.9245
vt 0.1667 0.8000 0.9245
vt 0.2083 0.8000 0.9245
vt 0.2500 0.8000 0.9245
vt 0.2917 0.8000 0.9245
vt 0.3333 0.8000 0.9245
vt 0.3750 0.8000 0.9245
vt 0.4167 0.8000 0.9245
vt 0.4583 0.8000 0.9245
vt 0.5000 0.8000 0.9245
vt 0.5417 0.8000 0.9245
vt 0.5833 0.8000 0.9245
vt 0.6250 0.8000 0.9245
vt 0.6667 0.8000 0.9245
vt 0.7083 0.8000 0.9245
vt 0.7917 1.0000 1.0000
vt 0.7500 1.0000 1.0000
vt 0.8333 1.0000 1.0000
vt 0.8750 1.0000 1.0000
vt 0.9167 1.0000 1.0000
vt 0.9583 1.0000 1.0000
vt 1.0000 1.0000 1.0000
vt 0.0417 1.0000 1.0000
vt 0.0000 1.0000 1.0000
vt 0.0833 1.0000 1.0000
vt 0.1250 1.0000 1.0000
vt 0.1667 1.0000 1.0000
vt 0.2083 1.0000 1.0000
vt 0.2500 1.0000 1.0000
vt 0.2917 1.0000 1.0000
vt 0.3333 1.0000 1.0000
vt 0.3750 1.0000 1.0000
vt 0.4167 1.0000 1.0000
vt 0.4583 1.0000 1.0000
vt 0.5000 1.0000 1.0000
vt 0.5417 1.0000 1.0000
vt 0.5833 1.0000 1.0000
vt 0.6250 1.0000 1.0000
vt 0.6667 1.0000 1.0000
vt 0.7083 1.0000 1.0000
vt 0.9830 0.3706 0.0000
vt 1.0000 0.5000 0.0000
vt 0.9830 0.6294 0.0000
vt 0.9330 0.7500 0.0000
vt 0.8536 0.8536 0.0000
vt 0.7500 0.9330 0.0000
vt 0.6294 0.9830 0.0000
vt 0.5000 1.0000 0.0000
vt 0.3706 0.9830 0.0000
vt 0.2500 0.9330 0.0000
vt 0.1464 0.8536 0.0000
vt 0.0670 0.7500 0.0000
vt 0.0170 0.6294 0.0000
vt -0.0000 0.5000 0.0000
vt 0.0170 0.3706 0.0000
vt 0.0670 0.2500 0.0000
vt 0.1464 0.1464 0.0000
vt 0.2500 0.0670 0.0000
vt 0.3706 0.0170 0.0000
vt 0.5000 -0.0000 0.0000
vt 0.6294 0.0170 0.0000
vt 0.7500 0.0670 0.0000
vt 0.8536 0.1464 0.0000
vt 0.9330 0.2500 0.0000
# 199 texture coords

o Cone001
g Cone001
usemtl Material__25
s 1
f 1/1/1 2/2/2 3/3/3 4/4/4 
f 1/1/1 5/5/5 6/6/6 2/2/2 
f 1/1/1 7/7/7 8/8/8 5/5/5 
f 1/1/1 9/9/9 10/10/10 7/7/7 
f 1/1/1 11/11/11 12/12/12 9/9/9 
f 1/1/1 13/13/13 14/14/14 11/11/11 
f 1/1/1 15/15/15 16/16/16 13/13/13 
f 1/1/1 17/17/17 18/18/18 15/15/15 
f 1/1/1 19/19/19 20/20/20 17/17/17 
f 1/1/1 21/21/21 22/22/22 19/19/19 
f 1/1/1 23/23/23 24/24/24 21/21/21 
f 1/1/1 4/4/4 25/25/25 23/23/23 
s 8
f 4/26/4 3/27/3 26/28/26 27/29/27 
f 3/27/3 2/30/2 28/31/28 26/28/26 
f 2/30/2 6/32/6 29/33/29 28/31/28 
f 6/32/6 5/34/5 30/35/30 29/33/29 
f 5/34/5 8/36/8 31/37/31 30/35/30 
f 8/36/8 7/38/7 32/39/32 31/37/31 
f 7/40/7 10/41/10 33/42/33 32/43/32 
f 10/41/10 9/44/9 34/45/34 33/42/33 
f 9/44/9 12/46/12 35/47/35 34/45/34 
f 12/46/12 11/48/11 36/49/36 35/47/35 
f 11/48/11 14/50/14 37/51/37 36/49/36 
f 14/50/14 13/52/13 38/53/38 37/51/37 
f 13/52/13 16/54/16 39/55/39 38/53/38 
f 16/54/16 15/56/15 40/57/40 39/55/39 
f 15/56/15 18/58/18 41/59/41 40/57/40 
f 18/58/18 17/60/17 42/61/42 41/59/41 
f 17/60/17 20/62/20 43/63/43 42/61/42 
f 20/62/20 19/64/19 44/65/44 43/63/43 
f 19/64/19 22/66/22 45/67/45 44/65/44 
f 22/66/22 21/68/21 46/69/46 45/67/45 
f 21/68/21 24/70/24 47/71/47 46/69/46 
f 24/70/24 23/72/23 48/73/48 47/71/47 
f 23/72/23 25/74/25 49/75/49 48/73/48 
f 25/74/25 4/26/4 27/29/27 49/75/49 
f 27/29/27 26/28/26 50/76/26 51/77/27 
f 26/28/26 28/31/28 52/78/28 50/76/26 
f 28/31/28 29/33/29 53/79/29 52/78/28 
f 29/33/29 30/35/30 54/80/30 53/79/29 
f 30/35/30 31/37/31 55/81/31 54/80/30 
f 31/37/31 32/39/32 56/82/50 55/81/31 
f 32/43/32 33/42/33 57/83/33 56/84/50 
f 33/42/33 34/45/34 58/85/34 57/83/33 
f 34/45/34 35/47/35 59/86/35 58/85/34 
f 35/47/35 36/49/36 60/87/36 59/86/35 
f 36/49/36 37/51/37 61/88/37 60/87/36 
f 37/51/37 38/53/38 62/89/38 61/88/37 
f 38/53/38 39/55/39 63/90/39 62/89/38 
f 39/55/39 40/57/40 64/91/40 63/90/39 
f 40/57/40 41/59/41 65/92/41 64/91/40 
f 41/59/41 42/61/42 66/93/42 65/92/41 
f 42/61/42 43/63/43 67/94/43 66/93/42 
f 43/63/43 44/65/44 68/95/44 67/94/43 
f 44/65/44 45/67/45 69/96/45 68/95/44 
f 45/67/45 46/69/46 70/97/46 69/96/45 
f 46/69/46 47/71/47 71/98/47 70/97/46 
f 47/71/47 48/73/48 72/99/48 71/98/47 
f 48/73/48 49/75/49 73/100/49 72/99/48 
f 49/75/49 27/29/27 51/77/27 73/100/49 
f 51/77/27 50/76/26 74/101/26 75/102/27 
f 50/76/26 52/78/28 76/103/28 74/101/26 
f 52/78/28 53/79/29 77/104/29 76/103/28 
f 53/79/29 54/80/30 78/105/30 77/104/29 
f 54/80/30 55/81/31 79/106/31 78/105/30 
f 55/81/31 56/82/50 80/107/50 79/106/31 
f 56/84/50 57/83/33 81/108/33 80/109/50 
f 57/83/33 58/85/34 82/110/34 81/108/33 
f 58/85/34 59/86/35 83/111/35 82/110/34 
f 59/86/35 60/87/36 84/112/36 83/111/35 
f 60/87/36 61/88/37 85/113/37 84/112/36 
f 61/88/37 62/89/38 86/114/38 85/113/37 
f 62/89/38 63/90/39 87/115/39 86/114/38 
f 63/90/39 64/91/40 88/116/40 87/115/39 
f 64/91/40 65/92/41 89/117/41 88/116/40 
f 65/92/41 66/93/42 90/118/42 89/117/41 
f 66/93/42 67/94/43 91/119/43 90/118/42 
f 67/94/43 68/95/44 92/120/44 91/119/43 
f 68/95/44 69/96/45 93/121/45 92/120/44 
f 69/96/45 70/97/46 94/122/46 93/121/45 
f 70/97/46 71/98/47 95/123/47 94/122/46 
f 71/98/47 72/99/48 96/124/48 95/123/47 
f 72/99/48 73/100/49 97/125/49 96/124/48 
f 73/100/49 51/77/27 75/102/27 97/125/49 
f 75/102/27 74/101/26 98/126/26 99/127/27 
f 74/101/26 76/103/28 100/128/28 98/126/26 
f 76/103/28 77/104/29 101/129/29 100/128/28 
f 77/104/29 78/105/30 102/130/30 101/129/29 
f 78/105/30 79/106/31 103/131/31 102/130/30 
f 79/106/31 80/107/50 104/132/50 103/131/31 
f 80/109/50 81/108/33 105/133/33 104/134/50 
f 81/108/33 82/110/34 106/135/34 105/133/33 
f 82/110/34 83/111/35 107/136/35 106/135/34 
f 83/111/35 84/112/36 108/137/36 107/136/35 
f 84/112/36 85/113/37 109/138/37 108/137/36 
f 85/113/37 86/114/38 110/139/38 109/138/37 
f 86/114/38 87/115/39 111/140/39 110/139/38 
f 87/115/39 88/116/40 112/141/40 111/140/39 
f 88/116/40 89/117/41 113/142/41 112/141/40 
f 89/117/41 90/118/42 114/143/42 113/142/41 
f 90/118/42 91/119/43 115/144/43 114/143/42 
f 91/119/43 92/120/44 116/145/44 115/144/43 
f 92/120/44 93/121/45 117/146/45 116/145/44 
f 93/121/45 94/122/46 118/147/46 117/146/45 
f 94/122/46 95/123/47 119/148/47 118/147/46 
f 95/123/47 96/124/48 120/149/48 119/148/47 
f 96/124/48 97/125/49 121/150/49 120/149/48 
f 97/125/49 75/102/27 99/127/27 121/150/49 
f 99/127/27 98/126/26 122/151/51 123/152/52 
f 98/126/26 100/128/28 124/153/53 122/151/51 
f 100/128/28 101/129/29 125/154/54 124/153/53 
f 101/129/29 102/130/30 126/155/55 125/154/54 
f 102/130/30 103/131/31 127/156/56 126/155/55 
f 103/131/31 104/132/50 128/157/57 127/156/56 
f 104/134/50 105/133/33 129/158/58 128/159/57 
f 105/133/33 106/135/34 130/160/59 129/158/58 
f 106/135/34 107/136/35 131/161/60 130/160/59 
f 107/136/35 108/137/36 132/162/61 131/161/60 
f 108/137/36 109/138/37 133/163/62 132/162/61 
f 109/138/37 110/139/38 134/164/63 133/163/62 
f 110/139/38 111/140/39 135/165/64 134/164/63 
f 111/140/39 112/141/40 136/166/65 135/165/64 
f 112/141/40 113/142/41 137/167/66 136/166/65 
f 113/142/41 114/143/42 138/168/67 137/167/66 
f 114/143/42 115/144/43 139/169/68 138/168/67 
f 115/144/43 116/145/44 140/170/69 139/169/68 
f 116/145/44 117/146/45 141/171/70 140/170/69 
f 117/146/45 118/147/46 142/172/71 141/171/70 
f 118/147/46 119/148/47 143/173/72 142/172/71 
f 119/148/47 120/149/48 144/174/73 143/173/72 
f 120/149/48 121/150/49 145/175/74 144/174/73 
f 121/150/49 99/127/27 123/152/52 145/175/74 
s 1
f 146/1/75 145/176/74 123/177/52 122/178/51 
f 146/1/75 122/178/51 124/179/53 125/180/54 
f 146/1/75 125/180/54 126/181/55 127/182/56 
f 146/1/75 127/182/56 128/183/57 129/184/58 
f 146/1/75 129/184/58 130/185/59 131/186/60 
f 146/1/75 131/186/60 132/187/61 133/188/62 
f 146/1/75 133/188/62 134/189/63 135/190/64 
f 146/1/75 135/190/64 136/191/65 137/192/66 
f 146/1/75 137/192/66 138/193/67 139/194/68 
f 146/1/75 139/194/68 140/195/69 141/196/70 
f 146/1/75 141/196/70 142/197/71 143/198/72 
f 146/1/75 143/198/72 144/199/73 145/176/74 
# 144 polygons

